HIERARCHY
ROOT Hips
{
    OFFSET   0.000000   0.000000   0.000000
    CHANNELS 6 Xposition Yposition Zposition Zrotation Xrotation Yrotation
    JOINT Chest
    {
        OFFSET   0.000000   8.007230   0.000000
        CHANNELS 3 Zrotation Xrotation Yrotation
        JOINT Chest2
        {
            OFFSET   0.000000  22.077100   0.000000
            CHANNELS 3 Zrotation Xrotation Yrotation
            JOINT Neck
            {
                OFFSET   0.000000  23.254800  -0.000021
                CHANNELS 3 Zrotation Xrotation Yrotation
                JOINT Head
                {
                    OFFSET   0.000000  14.370000   1.956610
                    CHANNELS 3 Zrotation Xrotation Yrotation
                    End Site
                    {
                        OFFSET   0.000000  19.566000   0.000000
                    }
                }
            }
            JOINT LeftCollar
            {
                OFFSET   3.911900  19.017000  -0.467063
                CHANNELS 3 Zrotation Xrotation Yrotation
                JOINT LeftShoulder
                {
                    OFFSET  10.383700   0.000000   0.000000
                    CHANNELS 3 Zrotation Xrotation Yrotation
                    JOINT LeftElbow
                    {
                        OFFSET  26.662100   0.001529   0.000325
                        CHANNELS 3 Zrotation Xrotation Yrotation
                        JOINT LeftWrist
                        {
                            OFFSET  28.869000  -0.000011  -0.000096
                            CHANNELS 3 Zrotation Xrotation Yrotation
                            JOINT LeftFinger0
                            {
                                OFFSET   2.044650  -2.323460   3.252850
                                CHANNELS 3 Zrotation Xrotation Yrotation
                                JOINT LeftFinger01
                                {
                                    OFFSET   3.088130   0.000000   0.000000
                                    CHANNELS 3 Zrotation Xrotation Yrotation
                                    JOINT LeftFinger02
                                    {
                                        OFFSET   2.639460   0.000000   0.000000
                                        CHANNELS 3 Zrotation Xrotation Yrotation
                                        End Site
                                        {
                                            OFFSET   2.582190   0.000000   0.000000
                                        }
                                    }
                                }
                            }
                            JOINT LeftFinger1
                            {
                                OFFSET   8.364480   0.000000   3.252850
                                CHANNELS 3 Zrotation Xrotation Yrotation
                                JOINT LeftFinger11
                                {
                                    OFFSET   4.646930   0.000000   0.000000
                                    CHANNELS 3 Zrotation Xrotation Yrotation
                                    JOINT LeftFinger12
                                    {
                                        OFFSET   2.323460   0.000000   0.000000
                                        CHANNELS 3 Zrotation Xrotation Yrotation
                                        End Site
                                        {
                                            OFFSET   2.273050   0.000000   0.000000
                                        }
                                    }
                                }
                            }
                            JOINT LeftFinger2
                            {
                                OFFSET   8.364480   0.000016   1.078090
                                CHANNELS 3 Zrotation Xrotation Yrotation
                                JOINT LeftFinger21
                                {
                                    OFFSET   5.111620   0.000000   0.000000
                                    CHANNELS 3 Zrotation Xrotation Yrotation
                                    JOINT LeftFinger22
                                    {
                                        OFFSET   2.788160   0.000017   0.000000
                                        CHANNELS 3 Zrotation Xrotation Yrotation
                                        End Site
                                        {
                                            OFFSET   2.727660   0.000000   0.000000
                                        }
                                    }
                                }
                            }
                            JOINT LeftFinger3
                            {
                                OFFSET   7.899780   0.000015  -1.078090
                                CHANNELS 3 Zrotation Xrotation Yrotation
                                JOINT LeftFinger31
                                {
                                    OFFSET   4.646920   0.000000   0.000000
                                    CHANNELS 3 Zrotation Xrotation Yrotation
                                    JOINT LeftFinger32
                                    {
                                        OFFSET   2.323470   0.000000   0.000000
                                        CHANNELS 3 Zrotation Xrotation Yrotation
                                        End Site
                                        {
                                            OFFSET   2.273050   0.000000   0.000000
                                        }
                                    }
                                }
                            }
                            JOINT LeftFinger4
                            {
                                OFFSET   7.435090   0.000000  -3.252850
                                CHANNELS 3 Zrotation Xrotation Yrotation
                                JOINT LeftFinger41
                                {
                                    OFFSET   3.717550   0.000000   0.000000
                                    CHANNELS 3 Zrotation Xrotation Yrotation
                                    JOINT LeftFinger42
                                    {
                                        OFFSET   1.858760   0.000000   0.000000
                                        CHANNELS 3 Zrotation Xrotation Yrotation
                                        End Site
                                        {
                                            OFFSET   1.818440   0.000000   0.000000
                                        }
                                    }
                                }
                            }
                        }
                    }
                }
            }
            JOINT RightCollar
            {
                OFFSET  -3.911900  19.017000  -0.467062
                CHANNELS 3 Zrotation Xrotation Yrotation
                JOINT RightShoulder
                {
                    OFFSET -10.383700   0.000015   0.000000
                    CHANNELS 3 Zrotation Xrotation Yrotation
                    JOINT RightElbow
                    {
                        OFFSET -26.662100   0.001341   0.000385
                        CHANNELS 3 Zrotation Xrotation Yrotation
                        JOINT RightWrist
                        {
                            OFFSET -28.869000   0.000025  -0.000080
                            CHANNELS 3 Zrotation Xrotation Yrotation
                            JOINT RightFinger0
                            {
                                OFFSET  -2.044650  -2.323490   3.252850
                                CHANNELS 3 Zrotation Xrotation Yrotation
                                JOINT RightFinger01
                                {
                                    OFFSET  -3.088130   0.000000   0.000000
                                    CHANNELS 3 Zrotation Xrotation Yrotation
                                    JOINT RightFinger02
                                    {
                                        OFFSET  -2.639460   0.000000   0.000000
                                        CHANNELS 3 Zrotation Xrotation Yrotation
                                        End Site
                                        {
                                            OFFSET  -2.582190   0.000000   0.000000
                                        }
                                    }
                                }
                            }
                            JOINT RightFinger1
                            {
                                OFFSET  -8.364480   0.000000   3.252850
                                CHANNELS 3 Zrotation Xrotation Yrotation
                                JOINT RightFinger11
                                {
                                    OFFSET  -4.646930   0.000000   0.000000
                                    CHANNELS 3 Zrotation Xrotation Yrotation
                                    JOINT RightFinger12
                                    {
                                        OFFSET  -2.323470   0.000000   0.000000
                                        CHANNELS 3 Zrotation Xrotation Yrotation
                                        End Site
                                        {
                                            OFFSET  -2.273050   0.000000   0.000000
                                        }
                                    }
                                }
                            }
                            JOINT RightFinger2
                            {
                                OFFSET  -8.364480   0.000000   1.078090
                                CHANNELS 3 Zrotation Xrotation Yrotation
                                JOINT RightFinger21
                                {
                                    OFFSET  -5.111610   0.000000   0.000000
                                    CHANNELS 3 Zrotation Xrotation Yrotation
                                    JOINT RightFinger22
                                    {
                                        OFFSET  -2.788160   0.000000   0.000000
                                        CHANNELS 3 Zrotation Xrotation Yrotation
                                        End Site
                                        {
                                            OFFSET  -2.727660   0.000000   0.000000
                                        }
                                    }
                                }
                            }
                            JOINT RightFinger3
                            {
                                OFFSET  -7.899780   0.000000  -1.078090
                                CHANNELS 3 Zrotation Xrotation Yrotation
                                JOINT RightFinger31
                                {
                                    OFFSET  -4.646920   0.000000   0.000000
                                    CHANNELS 3 Zrotation Xrotation Yrotation
                                    JOINT RightFinger32
                                    {
                                        OFFSET  -2.323470   0.000000   0.000000
                                        CHANNELS 3 Zrotation Xrotation Yrotation
                                        End Site
                                        {
                                            OFFSET  -2.273050   0.000000   0.000000
                                        }
                                    }
                                }
                            }
                            JOINT RightFinger4
                            {
                                OFFSET  -7.435090   0.000000  -3.252850
                                CHANNELS 3 Zrotation Xrotation Yrotation
                                JOINT RightFinger41
                                {
                                    OFFSET  -3.717550   0.000000   0.000000
                                    CHANNELS 3 Zrotation Xrotation Yrotation
                                    JOINT RightFinger42
                                    {
                                        OFFSET  -1.858770   0.000000   0.000000
                                        CHANNELS 3 Zrotation Xrotation Yrotation
                                        End Site
                                        {
                                            OFFSET  -1.818440   0.000000   0.000000
                                        }
                                    }
                                }
                            }
                        }
                    }
                }
            }
        }
    }
    JOINT LeftHip
    {
        OFFSET   9.783010   0.000000   0.000000
        CHANNELS 3 Zrotation Xrotation Yrotation
        JOINT LeftKnee
        {
            OFFSET   0.000070 -41.789100   0.000028
            CHANNELS 3 Zrotation Xrotation Yrotation
            JOINT LeftAnkle
            {
                OFFSET   0.000087 -41.133200  -0.000100
                CHANNELS 3 Zrotation Xrotation Yrotation
                JOINT LeftToe
                {
                    OFFSET   0.000000  -6.358960  14.674500
                    CHANNELS 3 Zrotation Xrotation Yrotation
                    End Site
                    {
                        OFFSET   0.000000   0.000000   3.913200
                    }
                }
            }
        }
    }
    JOINT RightHip
    {
        OFFSET  -9.783020   0.000000   0.000000
        CHANNELS 3 Zrotation Xrotation Yrotation
        JOINT RightKnee
        {
            OFFSET   0.000044 -41.789100  -0.000870
            CHANNELS 3 Zrotation Xrotation Yrotation
            JOINT RightAnkle
            {
                OFFSET  -0.000090 -41.133200  -0.000245
                CHANNELS 3 Zrotation Xrotation Yrotation
                JOINT RightToe
                {
                    OFFSET   0.000000  -6.358960  14.674500
                    CHANNELS 3 Zrotation Xrotation Yrotation
                    End Site
                    {
                        OFFSET   0.000000   0.000000   3.913200
                    }
                }
            }
        }
    }
}
MOTION
Frames: 5
Frame Time:   0.016667
  7.818470  88.528400  -4.054370   4.310270 -22.317000   7.033290  -1.178850  12.412800   2.823690  -3.113370  24.745900   6.139210   3.744660   2.554080  -0.167059   6.185760   5.112940 -16.738200  -6.979020  -3.182150   7.580360 -73.879000  12.022500  -7.583000  -0.121981   0.033631 -11.739700  11.919400  -4.591170  -2.644530  38.820600  30.483300 -52.057200 -31.836000  -0.000874  -0.000476 -10.918000  -0.000516   0.002946 -34.861800  -0.642282   0.921825 -28.527500   0.000261  -0.002938 -19.969300   0.002818   0.005017 -31.140900  -3.719400   6.128190 -47.010100  -0.001749  -0.004108 -31.308800  -0.001433  -0.005262 -28.601100  -3.444730   6.284040 -42.741400  -0.002625   0.008824 -28.465800  -0.002260   0.003490 -37.028000  -4.330520   5.714600 -55.866500   0.001181  -0.008712 -37.207100  -0.005478  -0.000000   7.858690  -1.575490  11.001900  64.817100  -5.383260  60.963100  -6.568440 -26.170000  80.917100  30.103200 -54.653800  36.194600 -52.720900  38.587200  76.749900 -21.012200  -0.000672  -0.007575 -15.000000   0.006378  -0.002525  18.391700   6.244070  18.109800  15.862300   0.001927  -0.001744  11.103600   0.001360  -0.011378  89.000000  -0.000833   0.000441  94.717700  -0.000266  -0.000907  71.038300  -0.000622  -0.007584  88.996400  -4.998970  -0.085616  91.054800  -0.011468  -0.001812  68.291000  -0.001857   0.005965  24.014000  -6.702380 -14.679200  37.322500   0.005311  -0.000771  24.856800   0.003011  -0.002334  -3.379020  21.640900  -1.841040  -2.174650   1.948560  10.739000  -0.223152  -2.448060   3.466550  -0.000000   0.000000  -0.000000 -10.098100  12.896000  -3.094130  -2.277960  21.190200 -13.689500   6.349990  -7.355800  -2.615460   0.000000   0.000000  -0.000000
  7.863120  88.530500  -4.142210   4.236740 -22.194600   6.988200  -1.166440  12.376900   2.839740  -3.088550  24.674200   6.167320   3.712450   2.420940  -0.157035   6.129060   4.847390 -16.708200  -6.991210  -3.155060   7.584480 -73.967800  12.030700  -7.649200  -0.117550   0.080782 -11.877200  11.894600  -4.620840  -2.698760  38.849000  30.504800 -52.086100 -31.806000  -0.000904  -0.000507 -10.903000  -0.000525   0.002838 -34.883600  -0.632471   0.907082 -28.545200   0.000252  -0.002951 -19.981700   0.002889   0.005080 -31.158200  -3.719370   6.123920 -47.035900  -0.001749  -0.004280 -31.325900  -0.001472  -0.005404 -28.601600  -3.442880   6.281330 -42.789900  -0.002626   0.008971 -28.498100  -0.002260   0.003347 -37.087100  -4.332390   5.706650 -55.954800   0.001181  -0.008829 -37.265900  -0.005478   0.000052   7.874800  -1.571490  10.997400  64.484300  -5.171240  60.725200  -6.793990 -26.689600  80.848000  29.792400 -54.370100  35.688600 -52.962800  38.752600  76.999700 -21.022100  -0.000551  -0.007601 -15.000000   0.006570  -0.002468  18.455200   6.220280  18.006100  15.908200   0.001964  -0.001910  11.135800   0.001381  -0.011712  89.000000  -0.000746   0.000406  94.624800  -0.000414  -0.000885  70.968700  -0.000665  -0.007810  88.996300  -4.999010  -0.085869  91.165400  -0.011553  -0.001866  68.374000  -0.001920   0.006122  24.590800  -6.640800 -14.180500  38.130400   0.005481  -0.000843  25.394900   0.003088  -0.002341  -3.334680  21.463200  -1.936790  -2.180080   1.940240  10.726000  -0.290709  -2.451920   3.593000  -0.000000   0.000000   0.000000 -10.168100  12.688500  -3.072530  -2.162890  21.191300 -13.704800   6.324840  -7.279810  -2.601330   0.000000   0.000000  -0.000000
  7.905190  88.532200  -4.232220   4.147020 -22.061100   6.912990  -1.152670  12.331400   2.854500  -3.059860  24.583700   6.191850   3.671940   2.284280  -0.146577   6.058840   4.574960 -16.651000  -7.003090  -3.119680   7.588550 -74.063000  12.037000  -7.713300  -0.116064   0.125526 -12.027800  11.867300  -4.668180  -2.749590  38.879300  30.535700 -52.129500 -31.774300  -0.000931  -0.000530 -10.887200  -0.000538   0.002729 -34.914000  -0.626910   0.898038 -28.570100   0.000244  -0.002955 -19.999000   0.002961   0.005143 -31.179500  -3.719340   6.117530 -47.067500  -0.001749  -0.004450 -31.346900  -0.001511  -0.005545 -28.602300  -3.440820   6.277950 -42.841100  -0.002626   0.009116 -28.532200  -0.002260   0.003204 -37.149900  -4.333450   5.697790 -56.048400   0.001181  -0.008944 -37.328200  -0.005477   0.000105   7.881140  -1.564050  10.985900  64.085000  -4.880360  60.364400  -7.127470 -27.307600  80.700300  29.332300 -54.213800  34.947200 -53.192400  38.956800  77.346000 -21.032000  -0.000209  -0.007611 -15.000000   0.006740  -0.002409  18.594000   6.200340  17.789600  16.008100   0.002094  -0.002083  11.205700   0.001457  -0.012043  89.000000  -0.000650   0.000362  94.564100  -0.000500  -0.000818  70.923100  -0.000689  -0.008036  88.996300  -4.999050  -0.086118  91.316200  -0.011650  -0.002055  68.487100  -0.002126   0.006264  25.345800  -6.590860 -13.617100  39.203600   0.006004  -0.001070  26.109600   0.003321  -0.002388  -3.285720  21.275000  -1.991520  -2.182870   1.931760  10.716500  -0.373576  -2.471250   3.720160   0.000000   0.000000   0.000000 -10.229500  12.454300  -3.017210  -2.035220  21.190900 -13.737900   6.295250  -7.206850  -2.580330   0.000000   0.000000  -0.000000
  7.936340  88.533600  -4.322410   4.039330 -21.912700   6.811970  -1.137450  12.274300   2.869730  -3.027330  24.469900   6.216270   3.625750   2.144380  -0.135865   5.979400   4.296280 -16.572100  -7.021870  -3.074080   7.577790 -74.144400  12.060400  -7.769490  -0.125670   0.138677 -12.188600  11.832400  -4.710120  -2.798220  38.923800  30.584400 -52.203800 -31.734500  -0.000956  -0.000535 -10.867300  -0.000556   0.002633 -34.952600  -0.623619   0.891946 -28.601600   0.000239  -0.002951 -20.021100   0.003033   0.005205 -31.196200  -3.719290   6.112870 -47.092300  -0.001749  -0.004621 -31.363400  -0.001552  -0.005682 -28.602900  -3.438930   6.274430 -42.871600  -0.002627   0.009264 -28.552500  -0.002259   0.003061 -37.205000  -4.334170   5.690340 -56.130500   0.001181  -0.009055 -37.382900  -0.005477   0.000150   7.852080  -1.554270  10.959100  63.505700  -4.464190  59.857000  -7.670430 -28.082700  80.419300  28.844200 -54.306100  34.037500 -53.215400  39.161200  77.836800 -20.845100   0.006231  -0.007596 -14.923900   0.006914  -0.002381  18.874100   6.221090  17.587800  16.222100   0.008686  -0.002268  11.355500   0.005948  -0.012365  89.000000  -0.000548   0.000300  94.547800   0.002829   0.002337  70.910900   0.002347  -0.008251  88.996300  -4.999090  -0.086363  91.511500  -0.011718  -0.003922  68.633600  -0.003916   0.006378  26.186900  -6.569190 -13.112400  40.418600   0.017208  -0.006381  26.918800   0.008069  -0.009042  -3.228970  21.070800  -1.990310  -2.183440   1.927330  10.717300  -0.477346  -2.510990   3.820550  -0.000000   0.000000   0.000000 -10.254100  12.208600  -2.921010  -1.904500  21.182100 -13.822900   6.250750  -7.130130  -2.544760   0.000000   0.000000  -0.000000
  7.950920  88.536400  -4.411440   3.912440 -21.746500   6.679720  -1.119920  12.205400   2.889360  -2.990110  24.332700   6.248610   3.577060   2.004590  -0.125245   5.896380   4.017680 -16.492200  -7.044920  -3.024450   7.554080 -74.213800  12.107500  -7.821140  -0.143008   0.142261 -12.349100  11.794600  -4.734370  -2.845760  38.972400  30.637300 -52.282300 -31.691300  -0.000979  -0.000541 -10.845700  -0.000575   0.002535 -34.995600  -0.622768   0.888379 -28.636700   0.000234  -0.002939 -20.045700   0.003106   0.005266 -31.211600  -3.719250   6.108540 -47.115400  -0.001749  -0.004789 -31.378800  -0.001594  -0.005819 -28.603500  -3.437020   6.270880 -42.894400  -0.002627   0.009409 -28.567700  -0.002259   0.002918 -37.252600  -4.334650   5.683680 -56.201400   0.001182  -0.009163 -37.430100  -0.005478   0.000193   7.823530  -1.548010  10.925900  62.770500  -4.023640  59.196100  -8.087080 -28.906300  80.086600  28.196700 -54.357900  32.932200 -53.401000  39.535100  78.619400 -20.658300   0.012323  -0.007581 -14.847800   0.007009  -0.002299  19.285500   6.247830  17.206600  16.533800   0.019924  -0.002457  11.573700   0.013616  -0.012682  89.000000  -0.000434   0.000230  94.528500   0.009886   0.009998  70.896400   0.009568  -0.008489  88.996300  -4.999120  -0.086604  91.769200  -0.011913  -0.007600  68.827000  -0.007305   0.006470  27.126200  -6.570220 -12.624400  41.786300   0.034621  -0.014805  27.829700   0.015269  -0.019885  -3.154380  20.850800  -1.988910  -2.183240   1.923430  10.722600  -0.587178  -2.570630   3.910310   0.000000   0.000000  -0.000000 -10.242100  11.953600  -2.815510  -1.791090  21.161900 -13.914900   6.193810  -7.048800  -2.500200  -0.000000   0.000000   0.000000
